<?xml version="1.0" encoding="UTF-8" standalone="no"?>
<!-- Created with Inkscape (http://www.inkscape.org/) -->

<svg
   xmlns:dc="http://purl.org/dc/elements/1.1/"
   xmlns:cc="http://creativecommons.org/ns#"
   xmlns:rdf="http://www.w3.org/1999/02/22-rdf-syntax-ns#"
   xmlns:svg="http://www.w3.org/2000/svg"
   xmlns="http://www.w3.org/2000/svg"
   xmlns:sodipodi="http://sodipodi.sourceforge.net/DTD/sodipodi-0.dtd"
   xmlns:inkscape="http://www.inkscape.org/namespaces/inkscape"
   version="1.1"
   id="svg161"
   xml:space="preserve"
   width="133.33333"
   height="133.33333"
   viewBox="0 0 133.33333 133.33333"
   sodipodi:docname="clipboard.svg"
   inkscape:version="0.92.2 (5c3e80d, 2017-08-06)"><metadata
     id="metadata167"><rdf:RDF><cc:Work
         rdf:about=""><dc:format>image/svg+xml</dc:format><dc:type
           rdf:resource="http://purl.org/dc/dcmitype/StillImage" /><dc:title></dc:title></cc:Work></rdf:RDF></metadata><defs
     id="defs165"><clipPath
       clipPathUnits="userSpaceOnUse"
       id="clipPath177"><path
         d="M 0,100 H 100 V 0 H 0 Z"
         id="path175"
         inkscape:connector-curvature="0" /></clipPath></defs><sodipodi:namedview
     pagecolor="#ffffff"
     bordercolor="#666666"
     borderopacity="1"
     objecttolerance="10"
     gridtolerance="10"
     guidetolerance="10"
     inkscape:pageopacity="0"
     inkscape:pageshadow="2"
     inkscape:window-width="640"
     inkscape:window-height="480"
     id="namedview163"
     showgrid="false"
     inkscape:zoom="1.7700001"
     inkscape:cx="66.666664"
     inkscape:cy="66.666664"
     inkscape:window-x="0"
     inkscape:window-y="0"
     inkscape:window-maximized="0"
     inkscape:current-layer="g169" /><g
     id="g169"
     inkscape:groupmode="layer"
     inkscape:label="clipboard"
     transform="matrix(1.3333333,0,0,-1.3333333,0,133.33333)"><g
       id="g171"><g
         id="g173"
         clip-path="url(#clipPath177)"><g
           id="g179"
           transform="translate(65.939,80.0127)"><path
             d="m 0,0 h -4.552 v 1.461 c 0,1.65 -1.35,3 -3,3 h -26.911 c -1.65,0 -3,-1.35 -3,-3 V 0 h -4.553 c -4.962,0 -9,-4.037 -9,-9 v -48.453 c 0,-4.963 4.038,-9 9,-9 H 0 c 4.962,0 9,4.037 9,9 V -9 C 9,-4.037 4.962,0 0,0"
             style="fill:#000000;fill-opacity:1;fill-rule:nonzero;stroke:none"
             id="path181"
             inkscape:connector-curvature="0" /></g><g
           id="g183"
           transform="translate(41.3955,84.5068)"><path
             d="M 0,0 C 0,1.953 1.583,3.536 3.536,3.536 5.488,3.536 7.071,1.953 7.071,0 h 6.58 c 0.018,0.24 0.037,0.479 0.037,0.724 0,5.463 -4.545,9.892 -10.152,9.892 -5.607,0 -10.153,-4.429 -10.153,-9.892 0,-0.245 0.019,-0.484 0.037,-0.724 z"
             style="fill:#000000;fill-opacity:1;fill-rule:nonzero;stroke:none"
             id="path185"
             inkscape:connector-curvature="0" /></g><g
           id="g187"
           transform="translate(77.939,10.5117)"><path
             d="m 0,0 h -42.016 c -3.299,0 -6,2.7 -6,6 v 46.096 c 0,3.3 2.701,6 6,6 H 0 c 3.3,0 6,-2.7 6,-6 V 6 C 6,2.7 3.3,0 0,0"
             style="fill:#ffffff;fill-opacity:1;fill-rule:nonzero;stroke:none"
             id="path189"
             inkscape:connector-curvature="0" /></g><g
           id="g191"
           transform="translate(77.939,10.5117)"><path
             d="m 0,0 h -42.016 c -3.299,0 -6,2.7 -6,6 v 46.096 c 0,3.3 2.701,6 6,6 H 0 c 3.3,0 6,-2.7 6,-6 V 6 C 6,2.7 3.3,0 0,0 Z"
             style="fill:none;stroke:#000000;stroke-width:6;stroke-linecap:butt;stroke-linejoin:miter;stroke-miterlimit:10;stroke-dasharray:none;stroke-opacity:1"
             id="path193"
             inkscape:connector-curvature="0" /></g><g
           id="g195"
           transform="translate(40.4756,52.5596)"><path
             d="M 0,0 H 32.911"
             style="fill:none;stroke:#000000;stroke-width:6;stroke-linecap:round;stroke-linejoin:miter;stroke-miterlimit:10;stroke-dasharray:none;stroke-opacity:1"
             id="path197"
             inkscape:connector-curvature="0" /></g><g
           id="g199"
           transform="translate(40.4756,39)"><path
             d="M 0,0 H 32.911"
             style="fill:none;stroke:#000000;stroke-width:6;stroke-linecap:round;stroke-linejoin:miter;stroke-miterlimit:10;stroke-dasharray:none;stroke-opacity:1"
             id="path201"
             inkscape:connector-curvature="0" /></g><g
           id="g203"
           transform="translate(40.4756,25.4404)"><path
             d="M 0,0 H 32.911"
             style="fill:none;stroke:#000000;stroke-width:6;stroke-linecap:round;stroke-linejoin:miter;stroke-miterlimit:10;stroke-dasharray:none;stroke-opacity:1"
             id="path205"
             inkscape:connector-curvature="0" /></g></g></g></g></svg>