<svg xmlns="http://www.w3.org/2000/svg" viewBox="0 0 100 100"><defs><style>.cls-1{fill:#fff;}.cls-1,.cls-2{stroke:#000;stroke-miterlimit:10;stroke-width:6px;}.cls-2{fill:none;stroke-linecap:round;}</style></defs><title>clipboard</title><g id="icon-clipboard"><path d="M65.94,20H61.39V18.53a3,3,0,0,0-3-3H31.48a3,3,0,0,0-3,3V20H23.92a9,9,0,0,0-9,9V77.44a9,9,0,0,0,9,9h42a9,9,0,0,0,9-9V29A9,9,0,0,0,65.94,20Z"/><path d="M41.4,15.49a3.54,3.54,0,0,1,7.07,0h6.58c0-.24,0-.48,0-.72a10.15,10.15,0,0,0-20.3,0c0,.24,0,.48,0,.72Z"/><rect class="cls-1" x="29.92" y="31.39" width="54.02" height="58.1" rx="6" ry="6"/><line class="cls-2" x1="40.48" y1="47.44" x2="73.39" y2="47.44"/><line class="cls-2" x1="40.48" y1="61" x2="73.39" y2="61"/><line class="cls-2" x1="40.48" y1="74.56" x2="73.39" y2="74.56"/></g></svg>