<svg xmlns="http://www.w3.org/2000/svg" viewBox="0 0 100 100"><defs><style>.cls-1{fill:#ccc;}.cls-2{fill:#fff;}.cls-3{fill:#231f20;}</style></defs><title>clipboard-active</title><g id="icon-clipboard-active"><rect class="cls-1" width="100" height="100" rx="26.08" ry="26.08"/><path d="M64.94,20H60.39V18.55a3,3,0,0,0-3-3H30.48a3,3,0,0,0-3,3V20H22.92a9,9,0,0,0-9,9V77.47a9,9,0,0,0,9,9h42a9,9,0,0,0,9-9V29A9,9,0,0,0,64.94,20Z"/><path d="M40.4,15.52a3.54,3.54,0,1,1,7.07,0h6.58c0-.24,0-.48,0-.72a10.15,10.15,0,0,0-20.3,0c0,.24,0,.48,0,.72Z"/><rect class="cls-2" x="28.92" y="31.42" width="54.02" height="58.1" rx="6" ry="6"/><path class="cls-3" d="M76.94,92.52h-42a9,9,0,0,1-9-9V37.42a9,9,0,0,1,9-9h42a9,9,0,0,1,9,9v46.1A9,9,0,0,1,76.94,92.52Zm-42-58.1a3,3,0,0,0-3,3v46.1a3,3,0,0,0,3,3h42a3,3,0,0,0,3-3V37.42a3,3,0,0,0-3-3Z"/><path class="cls-3" d="M72.39,50.47H39.48a3,3,0,1,1,0-6H72.39a3,3,0,0,1,0,6Z"/><path class="cls-3" d="M72.39,64H39.48a3,3,0,1,1,0-6H72.39a3,3,0,1,1,0,6Z"/><path class="cls-3" d="M72.39,77.59H39.48a3,3,0,1,1,0-6H72.39a3,3,0,1,1,0,6Z"/></g></svg>