<?xml version="1.0" encoding="UTF-8" standalone="no"?>
<!-- Created with Inkscape (http://www.inkscape.org/) -->

<svg
   xmlns:dc="http://purl.org/dc/elements/1.1/"
   xmlns:cc="http://creativecommons.org/ns#"
   xmlns:rdf="http://www.w3.org/1999/02/22-rdf-syntax-ns#"
   xmlns:svg="http://www.w3.org/2000/svg"
   xmlns="http://www.w3.org/2000/svg"
   xmlns:sodipodi="http://sodipodi.sourceforge.net/DTD/sodipodi-0.dtd"
   xmlns:inkscape="http://www.inkscape.org/namespaces/inkscape"
   version="1.1"
   id="svg29"
   xml:space="preserve"
   width="133.33333"
   height="133.33333"
   viewBox="0 0 133.33333 133.33333"
   sodipodi:docname="clipboard-active.svg"
   inkscape:version="0.92.2 (5c3e80d, 2017-08-06)"><metadata
     id="metadata35"><rdf:RDF><cc:Work
         rdf:about=""><dc:format>image/svg+xml</dc:format><dc:type
           rdf:resource="http://purl.org/dc/dcmitype/StillImage" /><dc:title></dc:title></cc:Work></rdf:RDF></metadata><defs
     id="defs33"><clipPath
       clipPathUnits="userSpaceOnUse"
       id="clipPath45"><path
         d="M 0,100 H 100 V 0 H 0 Z"
         id="path43"
         inkscape:connector-curvature="0" /></clipPath></defs><sodipodi:namedview
     pagecolor="#ffffff"
     bordercolor="#666666"
     borderopacity="1"
     objecttolerance="10"
     gridtolerance="10"
     guidetolerance="10"
     inkscape:pageopacity="0"
     inkscape:pageshadow="2"
     inkscape:window-width="640"
     inkscape:window-height="480"
     id="namedview31"
     showgrid="false"
     inkscape:zoom="4.3875002"
     inkscape:cx="66.666664"
     inkscape:cy="66.666664"
     inkscape:window-x="0"
     inkscape:window-y="0"
     inkscape:window-maximized="0"
     inkscape:current-layer="g37" /><g
     id="g37"
     inkscape:groupmode="layer"
     inkscape:label="clipboard-active"
     transform="matrix(1.3333333,0,0,-1.3333333,0,133.33333)"><g
       id="g39"><g
         id="g41"
         clip-path="url(#clipPath45)"><g
           id="g47"
           transform="translate(73.9248)"><path
             d="m 0,0 h -47.85 c -14.34,0 -26.075,11.734 -26.075,26.075 v 47.85 C -73.925,88.266 -62.19,100 -47.85,100 H 0 C 14.341,100 26.075,88.266 26.075,73.925 V 26.075 C 26.075,11.734 14.341,0 0,0"
             style="fill:#d1d3d4;fill-opacity:1;fill-rule:nonzero;stroke:none"
             id="path49"
             inkscape:connector-curvature="0" /></g><g
           id="g51"
           transform="translate(64.9385,79.9854)"><path
             d="m 0,0 h -4.552 v 1.462 c 0,1.649 -1.35,3 -3,3 h -26.911 c -1.649,0 -3,-1.351 -3,-3 V 0 h -4.552 c -4.963,0 -9,-4.037 -9,-9 v -48.453 c 0,-4.963 4.037,-9 9,-9 H 0 c 4.963,0 9,4.037 9,9 V -9 C 9,-4.037 4.963,0 0,0"
             style="fill:#000000;fill-opacity:1;fill-rule:nonzero;stroke:none"
             id="path53"
             inkscape:connector-curvature="0" /></g><g
           id="g55"
           transform="translate(40.3955,84.4805)"><path
             d="M 0,0 C 0,1.952 1.583,3.535 3.536,3.535 5.488,3.535 7.071,1.952 7.071,0 h 6.58 c 0.018,0.239 0.037,0.479 0.037,0.724 0,5.463 -4.545,9.892 -10.152,9.892 -5.607,0 -10.153,-4.429 -10.153,-9.892 0,-0.245 0.019,-0.485 0.038,-0.724 z"
             style="fill:#000000;fill-opacity:1;fill-rule:nonzero;stroke:none"
             id="path57"
             inkscape:connector-curvature="0" /></g><g
           id="g59"
           transform="translate(76.9385,10.4844)"><path
             d="m 0,0 h -42.015 c -3.299,0 -6,2.7 -6,6 v 46.097 c 0,3.299 2.701,6 6,6 H 0 c 3.3,0 6,-2.701 6,-6 V 6 C 6,2.7 3.3,0 0,0"
             style="fill:#ffffff;fill-opacity:1;fill-rule:nonzero;stroke:none"
             id="path61"
             inkscape:connector-curvature="0" /></g><g
           id="g63"
           transform="translate(34.9238,65.5811)"><path
             d="m 0,0 c -1.654,0 -3,-1.346 -3,-3 v -46.097 c 0,-1.654 1.346,-3 3,-3 h 42.015 c 1.654,0 3,1.346 3,3 V -3 c 0,1.654 -1.346,3 -3,3 z M 42.015,-58.097 H 0 c -4.963,0 -9,4.037 -9,9 V -3 c 0,4.963 4.037,9 9,9 h 42.015 c 4.963,0 9,-4.037 9,-9 v -46.097 c 0,-4.963 -4.037,-9 -9,-9"
             style="fill:#231f20;fill-opacity:1;fill-rule:nonzero;stroke:none"
             id="path65"
             inkscape:connector-curvature="0" /></g><g
           id="g67"
           transform="translate(72.3867,49.5322)"><path
             d="m 0,0 h -32.911 c -1.657,0 -3,1.343 -3,3 0,1.657 1.343,3 3,3 H 0 C 1.657,6 3,4.657 3,3 3,1.343 1.657,0 0,0"
             style="fill:#231f20;fill-opacity:1;fill-rule:nonzero;stroke:none"
             id="path69"
             inkscape:connector-curvature="0" /></g><g
           id="g71"
           transform="translate(72.3867,35.9727)"><path
             d="m 0,0 h -32.911 c -1.657,0 -3,1.343 -3,3 0,1.657 1.343,3 3,3 H 0 C 1.657,6 3,4.657 3,3 3,1.343 1.657,0 0,0"
             style="fill:#231f20;fill-opacity:1;fill-rule:nonzero;stroke:none"
             id="path73"
             inkscape:connector-curvature="0" /></g><g
           id="g75"
           transform="translate(72.3867,22.4131)"><path
             d="m 0,0 h -32.911 c -1.657,0 -3,1.343 -3,3 0,1.657 1.343,3 3,3 H 0 C 1.657,6 3,4.657 3,3 3,1.343 1.657,0 0,0"
             style="fill:#231f20;fill-opacity:1;fill-rule:nonzero;stroke:none"
             id="path77"
             inkscape:connector-curvature="0" /></g></g></g></g></svg>