<?xml version="1.0" encoding="UTF-8" standalone="no"?>
<!-- Created with Inkscape (http://www.inkscape.org/) -->

<svg
   xmlns:dc="http://purl.org/dc/elements/1.1/"
   xmlns:cc="http://creativecommons.org/ns#"
   xmlns:rdf="http://www.w3.org/1999/02/22-rdf-syntax-ns#"
   xmlns:svg="http://www.w3.org/2000/svg"
   xmlns="http://www.w3.org/2000/svg"
   xmlns:sodipodi="http://sodipodi.sourceforge.net/DTD/sodipodi-0.dtd"
   xmlns:inkscape="http://www.inkscape.org/namespaces/inkscape"
   version="1.1"
   id="svg313"
   xml:space="preserve"
   width="133.33333"
   height="133.33333"
   viewBox="0 0 133.33333 133.33333"
   sodipodi:docname="graph.svg"
   inkscape:version="0.92.2 (5c3e80d, 2017-08-06)"><metadata
     id="metadata319"><rdf:RDF><cc:Work
         rdf:about=""><dc:format>image/svg+xml</dc:format><dc:type
           rdf:resource="http://purl.org/dc/dcmitype/StillImage" /><dc:title></dc:title></cc:Work></rdf:RDF></metadata><defs
     id="defs317"><clipPath
       clipPathUnits="userSpaceOnUse"
       id="clipPath329"><path
         d="M 0,100 H 100 V 0 H 0 Z"
         id="path327"
         inkscape:connector-curvature="0" /></clipPath></defs><sodipodi:namedview
     pagecolor="#ffffff"
     bordercolor="#666666"
     borderopacity="1"
     objecttolerance="10"
     gridtolerance="10"
     guidetolerance="10"
     inkscape:pageopacity="0"
     inkscape:pageshadow="2"
     inkscape:window-width="640"
     inkscape:window-height="480"
     id="namedview315"
     showgrid="false"
     inkscape:zoom="1.7700001"
     inkscape:cx="66.666664"
     inkscape:cy="66.666664"
     inkscape:window-x="0"
     inkscape:window-y="0"
     inkscape:window-maximized="0"
     inkscape:current-layer="g321" /><g
     id="g321"
     inkscape:groupmode="layer"
     inkscape:label="graph"
     transform="matrix(1.3333333,0,0,-1.3333333,0,133.33333)"><g
       id="g323"><g
         id="g325"
         clip-path="url(#clipPath329)"><g
           id="g331"
           transform="translate(73.9424,67.9429)"><path
             d="m 0,0 c -3.33,0 -6.039,2.709 -6.039,6.04 0,3.329 2.709,6.038 6.039,6.038 3.329,0 6.038,-2.709 6.038,-6.038 C 6.038,2.709 3.329,0 0,0 m -24.011,-24.083 c -3.37,0 -6.112,2.742 -6.112,6.111 0,3.371 2.742,6.116 6.112,6.116 3.371,0 6.112,-2.745 6.112,-6.116 0,-3.369 -2.741,-6.111 -6.112,-6.111 m -21.032,-9.283 h -10e-4 z m 3.049,-8.633 c 0,-3.29 -2.674,-5.965 -5.964,-5.965 -3.289,0 -5.965,2.675 -5.965,5.965 0,3.289 2.676,5.964 5.965,5.964 3.29,0 5.964,-2.675 5.964,-5.964 M 12.044,6.04 c 0,6.652 -5.394,12.044 -12.044,12.044 -6.654,0 -12.046,-5.392 -12.046,-12.044 0,-5.617 3.85,-10.322 9.051,-11.656 v -9.356 h -9.286 c -1.338,5.241 -6.074,9.121 -11.73,9.121 -5.656,0 -10.393,-3.88 -11.73,-9.121 h -15.31 v -15.475 c -5.109,-1.364 -8.878,-6.013 -8.878,-11.552 0,-6.612 5.361,-11.97 11.971,-11.97 6.611,0 11.972,5.358 11.972,11.97 0,5.603 -3.858,10.296 -9.058,11.599 v 9.422 h 9.306 c 1.339,-5.235 6.074,-9.112 11.727,-9.112 5.653,0 10.387,3.876 11.727,9.112 H 3.012 V -5.61 c 5.191,1.339 9.032,6.039 9.032,11.65"
             style="fill:#000000;fill-opacity:1;fill-rule:nonzero;stroke:none"
             id="path333"
             inkscape:connector-curvature="0" /></g><g
           id="g335"
           transform="translate(28.8994,34.5771)"><path
             d="M 0,0 H -0.001"
             style="fill:#000000;fill-opacity:1;fill-rule:nonzero;stroke:none"
             id="path337"
             inkscape:connector-curvature="0" /></g></g></g></g></svg>