<svg xmlns="http://www.w3.org/2000/svg" viewBox="0 0 100 100"><defs><style>.cls-1{fill:#ccc;}</style></defs><title>graph-active</title><g id="icon-graph-active"><rect class="cls-1" width="100" height="100" rx="26.08" ry="26.08"/><path d="M86,26A12,12,0,1,0,71,37.67V47H61.66A12.1,12.1,0,0,0,38.2,47H22.89V62.5a12,12,0,1,0,6,0V53h9.3a12.1,12.1,0,0,0,23.46,0H77V37.67A12,12,0,0,0,86,26Zm-54,48a6,6,0,1,1-6-6A6,6,0,0,1,32,74.06ZM28.9,65.42Zm21-9.28A6.12,6.12,0,1,1,56,50,6.12,6.12,0,0,1,49.93,56.14Zm24-24.08a6,6,0,1,1,6-6A6,6,0,0,1,73.94,32.06Z"/></g></svg>