<?xml version="1.0"?>
<svg 
  xmlns="http://www.w3.org/2000/svg" 
  xmlns:xlink="http://www.w3.org/1999/xlink">
  <defs>
    <symbol id="highlight">
      <rect class="highlight" style="fill: #ccc" width="100" height="100" rx="26.08" ry="26.08"/>
    </symbol>
    <symbol id="expand-down">
      <polygon points="86.01 20.47 13.99 20.47 49.95 79.53 86.01 20.47"/>
    </symbol>
    <symbol id="expand-up">
      <use xlink:href="#expand-down" transform="translate(100, 100) rotate(180)"/>
    </symbol>
    <symbol id="cross">
      <polygon points="85.97 29.89 70.11 14.03 50 34.14 29.89 14.03 14.03 29.89 34.14 50 14.03 70.11 29.89 85.97 50 65.86 70.11 85.97 85.97 70.11 65.86 50 85.97 29.89"/>
    </symbol>
    <symbol id="cross-white">
      <polygon style="fill: #fff" points="85.97 29.89 70.11 14.03 50 34.14 29.89 14.03 14.03 29.89 34.14 50 14.03 70.11 29.89 85.97 50 65.86 70.11 85.97 85.97 70.11 65.86 50 85.97 29.89"/>
    </symbol>
    <symbol id="search">
      <path style="fill: #fff" d="M86,74.7,64.78,53.48A27,27,0,1,0,53.53,64.65L74.79,85.91ZM23,40.76a18,18,0,1,1,18,18A18,18,0,0,1,23,40.76Z"/>
    </symbol>
    <symbol id="tick">
      <path style="fill: #39b54a" d="M14.84,56.08a2.9,2.9,0,0,1,0-4.08L22,44.8a2.9,2.9,0,0,1,4.08,0L37.81,56.46a2.89,2.89,0,0,0,4.07,0l32-32.11a2.9,2.9,0,0,1,4.08,0l7.16,7.11a2.88,2.88,0,0,1,0,4.07L46.31,74.46a8,8,0,0,1-4.91,2H38a8,8,0,0,1-4.91-2Z"/>
    </symbol>
    <symbol id="tick-white">
      <path style="fill: #fff" d="M14.84,56.08a2.9,2.9,0,0,1,0-4.08L22,44.8a2.9,2.9,0,0,1,4.08,0L37.81,56.46a2.89,2.89,0,0,0,4.07,0l32-32.11a2.9,2.9,0,0,1,4.08,0l7.16,7.11a2.88,2.88,0,0,1,0,4.07L46.31,74.46a8,8,0,0,1-4.91,2H38a8,8,0,0,1-4.91-2Z"/>
    </symbol>
    <symbol id="previous">
      <polygon points="50.83 18.14 13.98 50 50.83 81.86 50.83 61.96 86.02 61.96 86.02 38.04 50.83 38.04 50.83 18.14"/>
    </symbol>
    <symbol id="previous-active">
      <use xlink:href="#highlight"/>
      <use xlink:href="#previous"/>
    </symbol>
    <symbol id="next">
      <use xlink:href="#previous" transform="translate(100, 100) rotate(180)"/>
    </symbol>
    <symbol id="next-active">
      <use xlink:href="#highlight"/>
      <use xlink:href="#next"/>
    </symbol>
    <symbol id="clipboard">
      <polygon style="fill: #fff" points="73.03 29.13 27.62 29.13 27.62 21.03 41.21 20.62 44.21 12.1 50 9.11 56.78 12.68 60.03 19.74 67.08 21.28 73.03 23.87 73.03 29.13"/>
      <polygon style="fill: #fff" points="84.38 51.84 78.71 51.84 78.71 34.81 21.94 34.81 21.94 85.9 78.71 85.9 78.71 74.54 84.38 74.54 84.38 51.84"/>
      <path d="M27.62,74.54h22.7v5.68H27.62ZM56,40.49H27.62v5.67H56Zm11.35,17V46.16l-17,17,17,17V68.87H95.74V57.51ZM41.81,51.84H27.62v5.67H41.81Zm-14.19,17H41.81V63.19H27.62Zm51.09,5.67h5.67V85.9a5.78,5.78,0,0,1-1.7,4,6.19,6.19,0,0,1-4,1.7H21.94a5.69,5.69,0,0,1-5.68-5.67V23.46a5.7,5.7,0,0,1,5.68-5.68H39a11.36,11.36,0,0,1,22.71,0h17a5.69,5.69,0,0,1,5.67,5.68V51.84H78.71v-17H21.94V85.9H78.71ZM27.62,29.13H73a5.69,5.69,0,0,0-5.68-5.67H61.68A5.7,5.7,0,0,1,56,17.78a5.68,5.68,0,1,0-11.35,0A5.7,5.7,0,0,1,39,23.46H33.29A5.68,5.68,0,0,0,27.62,29.13Z"/>
    </symbol>
    <symbol id="clipboard-active">
      <use xlink:href="#highlight"/>
      <use xlink:href="#clipboard"/>
    </symbol>
    <symbol id="list">
      <rect x="33.83" y="19.63" width="52.62" height="11.56"/>
      <rect x="33.83" y="44.22" width="52.62" height="11.56"/>
      <rect x="33.83" y="68.94" width="52.62" height="11.56"/>
      <path d="M20.19,19.63A5.77,5.77,0,1,0,26,25.4,5.77,5.77,0,0,0,20.19,19.63Z"/>
      <path d="M20.19,44.19A5.77,5.77,0,1,0,26,50,5.77,5.77,0,0,0,20.19,44.19Z"/>
      <path d="M20.19,68.85A5.78,5.78,0,1,0,26,74.63,5.78,5.78,0,0,0,20.19,68.85Z"/>
    </symbol>
    <symbol id="list-active">
      <use xlink:href="#highlight"/>
      <use xlink:href="#list"/>
    </symbol>
    <symbol id="eye">
      <path d="M50.19,30.28c-19.39,0-35.87,19.41-35.87,19.41v.73S30.73,70,50.13,70,86,50.54,86,50.54v-.73S69.59,30.28,50.19,30.28Zm-.12,32A11.89,11.89,0,1,1,62,50.38,11.88,11.88,0,0,1,50.07,62.26Z"/>
      <path d="M50.07,44.86a5.44,5.44,0,1,0,5.44,5.44A5.44,5.44,0,0,0,50.07,44.86Z"/>
    </symbol>
    <symbol id="is-a">
      <path fill="#fff" stroke="#000" stroke-width="5" d="M 40,25 L 0,50 L 40,75      Z M 33,50 L 100,50"/>
    </symbol>
  </defs>
</svg>