<?xml version="1.0" encoding="UTF-8" standalone="no"?>
<!-- Created with Inkscape (http://www.inkscape.org/) -->

<svg
   xmlns:dc="http://purl.org/dc/elements/1.1/"
   xmlns:cc="http://creativecommons.org/ns#"
   xmlns:rdf="http://www.w3.org/1999/02/22-rdf-syntax-ns#"
   xmlns:svg="http://www.w3.org/2000/svg"
   xmlns="http://www.w3.org/2000/svg"
   xmlns:sodipodi="http://sodipodi.sourceforge.net/DTD/sodipodi-0.dtd"
   xmlns:inkscape="http://www.inkscape.org/namespaces/inkscape"
   version="1.1"
   id="svg29"
   xml:space="preserve"
   width="133.33333"
   height="133.33333"
   viewBox="0 0 133.33333 133.33333"
   sodipodi:docname="list-active.svg"
   inkscape:version="0.92.2 (5c3e80d, 2017-08-06)"><metadata
     id="metadata35"><rdf:RDF><cc:Work
         rdf:about=""><dc:format>image/svg+xml</dc:format><dc:type
           rdf:resource="http://purl.org/dc/dcmitype/StillImage" /><dc:title></dc:title></cc:Work></rdf:RDF></metadata><defs
     id="defs33"><clipPath
       clipPathUnits="userSpaceOnUse"
       id="clipPath45"><path
         d="M 0,100 H 100 V 0 H 0 Z"
         id="path43"
         inkscape:connector-curvature="0" /></clipPath></defs><sodipodi:namedview
     pagecolor="#ffffff"
     bordercolor="#666666"
     borderopacity="1"
     objecttolerance="10"
     gridtolerance="10"
     guidetolerance="10"
     inkscape:pageopacity="0"
     inkscape:pageshadow="2"
     inkscape:window-width="640"
     inkscape:window-height="480"
     id="namedview31"
     showgrid="false"
     inkscape:zoom="4.3875002"
     inkscape:cx="66.666664"
     inkscape:cy="66.666664"
     inkscape:window-x="0"
     inkscape:window-y="0"
     inkscape:window-maximized="0"
     inkscape:current-layer="g37" /><g
     id="g37"
     inkscape:groupmode="layer"
     inkscape:label="list-active"
     transform="matrix(1.3333333,0,0,-1.3333333,0,133.33333)"><g
       id="g39"><g
         id="g41"
         clip-path="url(#clipPath45)"><g
           id="g47"
           transform="translate(73.9248)"><path
             d="M 0,0 H -47.85 C -62.19,0 -73.925,11.734 -73.925,26.076 V 73.924 C -73.925,88.266 -62.19,100 -47.85,100 H 0 C 14.341,100 26.075,88.266 26.075,73.924 V 26.076 C 26.075,11.734 14.341,0 0,0"
             style="fill:#d1d3d4;fill-opacity:1;fill-rule:nonzero;stroke:none"
             id="path49"
             inkscape:connector-curvature="0" /></g><path
           d="M 33.396,68.873 H 86.012 V 80.436 H 33.396 Z"
           style="fill:#231f20;fill-opacity:1;fill-rule:nonzero;stroke:none"
           id="path51"
           inkscape:connector-curvature="0" /><path
           d="M 33.396,44.284 H 86.012 V 55.847 H 33.396 Z"
           style="fill:#231f20;fill-opacity:1;fill-rule:nonzero;stroke:none"
           id="path53"
           inkscape:connector-curvature="0" /><path
           d="M 33.396,19.564 H 86.012 V 31.127 H 33.396 Z"
           style="fill:#231f20;fill-opacity:1;fill-rule:nonzero;stroke:none"
           id="path55"
           inkscape:connector-curvature="0" /><g
           id="g57"
           transform="translate(19.7588,80.4355)"><path
             d="m 0,0 c -3.188,0 -5.771,-2.584 -5.771,-5.771 0,-3.187 2.583,-5.772 5.771,-5.772 3.188,0 5.771,2.585 5.771,5.772 C 5.771,-2.584 3.188,0 0,0"
             style="fill:#231f20;fill-opacity:1;fill-rule:nonzero;stroke:none"
             id="path59"
             inkscape:connector-curvature="0" /></g><g
           id="g61"
           transform="translate(19.7588,55.8779)"><path
             d="m 0,0 c -3.188,0 -5.771,-2.584 -5.771,-5.771 0,-3.187 2.583,-5.771 5.771,-5.771 3.188,0 5.771,2.584 5.771,5.771 C 5.771,-2.584 3.188,0 0,0"
             style="fill:#231f20;fill-opacity:1;fill-rule:nonzero;stroke:none"
             id="path63"
             inkscape:connector-curvature="0" /></g><g
           id="g65"
           transform="translate(19.7588,31.2119)"><path
             d="m 0,0 c -3.188,0 -5.771,-2.584 -5.771,-5.771 0,-3.187 2.583,-5.771 5.771,-5.771 3.188,0 5.771,2.584 5.771,5.771 C 5.771,-2.584 3.188,0 0,0"
             style="fill:#231f20;fill-opacity:1;fill-rule:nonzero;stroke:none"
             id="path67"
             inkscape:connector-curvature="0" /></g></g></g></g></svg>