<svg xmlns="http://www.w3.org/2000/svg" viewBox="0 0 100 100"><defs><style>.cls-1{fill:#ccc;}.cls-2{fill:#231f20;}</style></defs><title>list-active</title><g id="icon-list-active"><rect class="cls-1" width="100" height="100" rx="26.08" ry="26.08"/><rect class="cls-2" x="33.4" y="19.56" width="52.62" height="11.56"/><rect class="cls-2" x="33.4" y="44.15" width="52.62" height="11.56"/><rect class="cls-2" x="33.4" y="68.87" width="52.62" height="11.56"/><path class="cls-2" d="M19.76,19.56a5.78,5.78,0,1,0,5.77,5.78A5.77,5.77,0,0,0,19.76,19.56Z"/><path class="cls-2" d="M19.76,44.12a5.77,5.77,0,1,0,5.77,5.77A5.77,5.77,0,0,0,19.76,44.12Z"/><path class="cls-2" d="M19.76,68.79a5.77,5.77,0,1,0,5.77,5.77A5.77,5.77,0,0,0,19.76,68.79Z"/></g></svg>