<svg xmlns="http://www.w3.org/2000/svg" viewBox="0 0 100 100"><title>list</title><g id="icon-list"><rect x="33.83" y="19.63" width="52.62" height="11.56"/><rect x="33.83" y="44.22" width="52.62" height="11.56"/><rect x="33.83" y="68.94" width="52.62" height="11.56"/><path d="M20.19,19.63A5.77,5.77,0,1,0,26,25.4,5.77,5.77,0,0,0,20.19,19.63Z"/><path d="M20.19,44.19A5.77,5.77,0,1,0,26,50,5.77,5.77,0,0,0,20.19,44.19Z"/><path d="M20.19,68.85A5.78,5.78,0,1,0,26,74.63,5.78,5.78,0,0,0,20.19,68.85Z"/></g></svg>