<?xml version="1.0" encoding="UTF-8" standalone="no"?>
<!-- Created with Inkscape (http://www.inkscape.org/) -->

<svg
   xmlns:dc="http://purl.org/dc/elements/1.1/"
   xmlns:cc="http://creativecommons.org/ns#"
   xmlns:rdf="http://www.w3.org/1999/02/22-rdf-syntax-ns#"
   xmlns:svg="http://www.w3.org/2000/svg"
   xmlns="http://www.w3.org/2000/svg"
   xmlns:sodipodi="http://sodipodi.sourceforge.net/DTD/sodipodi-0.dtd"
   xmlns:inkscape="http://www.inkscape.org/namespaces/inkscape"
   version="1.1"
   id="svg107"
   xml:space="preserve"
   width="133.33333"
   height="133.33333"
   viewBox="0 0 133.33333 133.33333"
   sodipodi:docname="list.svg"
   inkscape:version="0.92.2 (5c3e80d, 2017-08-06)"><metadata
     id="metadata113"><rdf:RDF><cc:Work
         rdf:about=""><dc:format>image/svg+xml</dc:format><dc:type
           rdf:resource="http://purl.org/dc/dcmitype/StillImage" /><dc:title></dc:title></cc:Work></rdf:RDF></metadata><defs
     id="defs111"><clipPath
       clipPathUnits="userSpaceOnUse"
       id="clipPath129"><path
         d="M 0,100 H 100 V 0 H 0 Z"
         id="path127"
         inkscape:connector-curvature="0" /></clipPath></defs><sodipodi:namedview
     pagecolor="#ffffff"
     bordercolor="#666666"
     borderopacity="1"
     objecttolerance="10"
     gridtolerance="10"
     guidetolerance="10"
     inkscape:pageopacity="0"
     inkscape:pageshadow="2"
     inkscape:window-width="640"
     inkscape:window-height="480"
     id="namedview109"
     showgrid="false"
     inkscape:zoom="1.7700001"
     inkscape:cx="66.666664"
     inkscape:cy="66.666664"
     inkscape:window-x="0"
     inkscape:window-y="0"
     inkscape:window-maximized="0"
     inkscape:current-layer="g115" /><g
     id="g115"
     inkscape:groupmode="layer"
     inkscape:label="list"
     transform="matrix(1.3333333,0,0,-1.3333333,0,133.33333)"><path
       d="M 33.831,68.807 H 86.447 V 80.37 H 33.831 Z"
       style="fill:#231f20;fill-opacity:1;fill-rule:nonzero;stroke:none"
       id="path117"
       inkscape:connector-curvature="0" /><path
       d="M 33.831,44.218 H 86.447 V 55.781 H 33.831 Z"
       style="fill:#231f20;fill-opacity:1;fill-rule:nonzero;stroke:none"
       id="path119"
       inkscape:connector-curvature="0" /><path
       d="M 33.831,19.499 H 86.447 V 31.062 H 33.831 Z"
       style="fill:#231f20;fill-opacity:1;fill-rule:nonzero;stroke:none"
       id="path121"
       inkscape:connector-curvature="0" /><g
       id="g123"><g
         id="g125"
         clip-path="url(#clipPath129)"><g
           id="g131"
           transform="translate(20.1938,80.3696)"><path
             d="m 0,0 c -3.188,0 -5.771,-2.584 -5.771,-5.771 0,-3.187 2.583,-5.772 5.771,-5.772 3.188,0 5.771,2.585 5.771,5.772 C 5.771,-2.584 3.188,0 0,0"
             style="fill:#231f20;fill-opacity:1;fill-rule:nonzero;stroke:none"
             id="path133"
             inkscape:connector-curvature="0" /></g><g
           id="g135"
           transform="translate(20.1938,55.812)"><path
             d="m 0,0 c -3.188,0 -5.771,-2.584 -5.771,-5.771 0,-3.187 2.583,-5.771 5.771,-5.771 3.188,0 5.771,2.584 5.771,5.771 C 5.771,-2.584 3.188,0 0,0"
             style="fill:#231f20;fill-opacity:1;fill-rule:nonzero;stroke:none"
             id="path137"
             inkscape:connector-curvature="0" /></g><g
           id="g139"
           transform="translate(20.1938,31.146)"><path
             d="m 0,0 c -3.188,0 -5.771,-2.584 -5.771,-5.771 0,-3.187 2.583,-5.771 5.771,-5.771 3.188,0 5.771,2.584 5.771,5.771 C 5.771,-2.584 3.188,0 0,0"
             style="fill:#231f20;fill-opacity:1;fill-rule:nonzero;stroke:none"
             id="path141"
             inkscape:connector-curvature="0" /></g></g></g></g></svg>