<?xml version="1.0" encoding="UTF-8"?><svg id="spinner" xmlns="http://www.w3.org/2000/svg" viewBox="0 0 1200 1200"><title>spinner</title><g><rect x="561.73" y="17.88" width="76.54" height="253.47"/><rect x="334.04" y="78.89" width="76.54" height="253.47" transform="translate(-52.93 213.7) rotate(-30)"/><rect x="167.35" y="245.57" width="76.54" height="253.47" transform="matrix(0.5, -0.87, 0.87, 0.5, -219.62, 364.23)"/><rect x="106.34" y="473.26" width="76.54" height="253.47" transform="translate(-455.39 744.61) rotate(-90)"/><rect x="167.35" y="700.96" width="76.54" height="253.47" transform="translate(-408.37 1419.62) rotate(-120)"/><rect x="334.04" y="867.64" width="76.54" height="253.47" transform="translate(197.54 2041.69) rotate(-150)"/><rect x="561.73" y="928.65" width="76.54" height="253.47" transform="translate(1200 2110.78) rotate(-180)"/><rect x="789.43" y="867.64" width="76.54" height="253.47" transform="translate(2041.69 1441.69) rotate(150)"/><rect x="956.11" y="700.96" width="76.54" height="253.47" transform="translate(2208.37 380.38) rotate(120)"/><rect x="1017.12" y="473.26" width="76.54" height="253.47" transform="translate(1655.39 -455.39) rotate(90)"/><rect x="956.11" y="245.57" width="76.54" height="253.47" transform="translate(819.62 -675) rotate(60)"/><rect x="789.43" y="78.89" width="76.54" height="253.47" transform="translate(213.7 -386.3) rotate(30)"/><animateTransform attributeName="transform" attributeType="XML" type="rotate" from="0 600 600" to="360 600 600" begin="0s" dur="4s" repeatCount="indefinite"/></g></svg>
